<?xml version="1.0" encoding="UTF-8" standalone="no"?>
<!-- Created with Inkscape (http://www.inkscape.org/) -->

<svg
   xmlns:dc="http://purl.org/dc/elements/1.1/"
   xmlns:cc="http://creativecommons.org/ns#"
   xmlns:rdf="http://www.w3.org/1999/02/22-rdf-syntax-ns#"
   xmlns:svg="http://www.w3.org/2000/svg"
   xmlns="http://www.w3.org/2000/svg"
   xmlns:xlink="http://www.w3.org/1999/xlink"
   xmlns:sodipodi="http://sodipodi.sourceforge.net/DTD/sodipodi-0.dtd"
   xmlns:inkscape="http://www.inkscape.org/namespaces/inkscape"
   width="130"
   height="100"
   id="svg2872"
   version="1.1"
   inkscape:version="0.48.2 r9819"
   sodipodi:docname="ic_action_refresh.svg"
   inkscape:export-filename="/home/leonid/Dokumente/Grafik/CTX/icon.png"
   inkscape:export-xdpi="135"
   inkscape:export-ydpi="135">
  <defs
     id="defs2874">
    <linearGradient
       id="linearGradient3886">
      <stop
         style="stop-color:#8c8c8c;stop-opacity:1;"
         offset="0"
         id="stop3888" />
      <stop
         style="stop-color:#b2b2b2;stop-opacity:1;"
         offset="1"
         id="stop3890" />
    </linearGradient>
    <linearGradient
       inkscape:collect="always"
       xlink:href="#linearGradient3886"
       id="linearGradient3892"
       x1="99"
       y1="10"
       x2="99"
       y2="42"
       gradientUnits="userSpaceOnUse"
       gradientTransform="matrix(1,0,0,-1,328,510.38563)" />
    <clipPath
       clipPathUnits="userSpaceOnUse"
       id="clipPath3960">
      <path
         style="fill:#000000;fill-opacity:1;fill-rule:nonzero;stroke:none"
         d="m 470,486.38563 c -8.83656,0 -16,-7.16345 -16,-16 0,-8.83655 7.16344,-16 16,-16 8.83656,0 16,7.16345 16,16 0,8.83655 -7.16344,16 -16,16 z m 0,-4 c 6.62742,0 12,-5.37258 12,-12 0,-6.62742 -5.37258,-12 -12,-12 -6.62742,0 -12,5.37258 -12,12 0,6.62742 5.37258,12 12,12 z m -2.84375,-6.75 c -0.25562,0 -0.49163,-0.11663 -0.6875,-0.3125 l -1.40625,-1.40625 c -0.39173,-0.39173 -0.39173,-1.01451 0,-1.40625 l 2.09375,-2.125 -2.09375,-2.125 c -0.39173,-0.39174 -0.39173,-1.01452 0,-1.40625 l 1.40625,-1.40625 c 0.39173,-0.39173 1.01451,-0.39173 1.40625,0 l 2.125,2.09375 2.125,-2.09375 c 0.39174,-0.39173 1.01452,-0.39173 1.40625,0 l 1.40625,1.40625 c 0.39173,0.39173 0.39173,1.01451 0,1.40625 l -2.09375,2.125 2.09375,2.125 c 0.39173,0.39174 0.39173,1.01452 0,1.40625 l -1.40625,1.40625 c -0.39173,0.39173 -1.01451,0.39173 -1.40625,0 l -2.125,-2.09375 -2.125,2.09375 c -0.19587,0.19587 -0.46313,0.3125 -0.71875,0.3125 z"
         id="path3962"
         inkscape:connector-curvature="0" />
    </clipPath>
    <linearGradient
       inkscape:collect="always"
       xlink:href="#linearGradient3886"
       id="linearGradient4002"
       gradientUnits="userSpaceOnUse"
       gradientTransform="matrix(1,0,0,-1,328,510.38563)"
       x1="99"
       y1="10"
       x2="99"
       y2="42" />
    <linearGradient
       inkscape:collect="always"
       xlink:href="#linearGradient3886"
       id="linearGradient4010"
       gradientUnits="userSpaceOnUse"
       gradientTransform="matrix(1,0,0,-1,328,510.38563)"
       x1="99"
       y1="10"
       x2="99"
       y2="42" />
    <linearGradient
       inkscape:collect="always"
       xlink:href="#linearGradient3886"
       id="linearGradient4014"
       gradientUnits="userSpaceOnUse"
       gradientTransform="matrix(1,0,0,-1,328,510.38563)"
       x1="99"
       y1="10"
       x2="99"
       y2="42" />
  </defs>
  <sodipodi:namedview
     id="base"
     pagecolor="#222222"
     bordercolor="#666666"
     borderopacity="1.0"
     inkscape:pageopacity="1"
     inkscape:pageshadow="2"
     inkscape:zoom="8.6153846"
     inkscape:cx="65"
     inkscape:cy="50"
     inkscape:document-units="px"
     inkscape:current-layer="layer1"
     showgrid="true"
     inkscape:window-width="1680"
     inkscape:window-height="1026"
     inkscape:window-x="1440"
     inkscape:window-y="24"
     inkscape:window-maximized="1"
     showguides="true"
     inkscape:guide-bbox="true"
     fit-margin-top="0"
     fit-margin-left="0"
     fit-margin-right="0"
     fit-margin-bottom="0">
    <inkscape:grid
       type="xygrid"
       id="grid3021"
       empspacing="2"
       visible="true"
       enabled="true"
       snapvisiblegridlinesonly="true"
       spacingx="0.5px"
       spacingy="0.5px"
       dotted="false"
       color="#ff00ea"
       opacity="0.1254902" />
  </sodipodi:namedview>
  <metadata
     id="metadata2877">
    <rdf:RDF>
      <cc:Work
         rdf:about="">
        <dc:format>image/svg+xml</dc:format>
        <dc:type
           rdf:resource="http://purl.org/dc/dcmitype/StillImage" />
        <dc:title />
      </cc:Work>
    </rdf:RDF>
  </metadata>
  <g
     inkscape:groupmode="layer"
     id="layer2"
     inkscape:label="drawable:layer"
     style="display:none"
     transform="translate(-2,8.953125)"
     sodipodi:insensitive="true">
    <rect
       style="fill:#000000;fill-opacity:1;fill-rule:nonzero;stroke:none"
       id="drawable:hdpi"
       width="48"
       height="48"
       x="80"
       y="-0.953125"
       inkscape:label="#rect3839" />
    <rect
       style="fill:#222222;fill-opacity:1;fill-rule:nonzero;stroke:none"
       id="rect3923"
       width="36"
       height="36"
       x="86"
       y="5.046875"
       inkscape:label="#rect3839" />
    <text
       xml:space="preserve"
       style="font-size:5.65904617px;font-style:normal;font-variant:normal;font-weight:bold;font-stretch:normal;text-align:start;line-height:125%;letter-spacing:0px;word-spacing:0px;text-anchor:start;fill:#aa5196;fill-opacity:0.34782607;stroke:#91678b;stroke-width:0.1;stroke-miterlimit:4;stroke-opacity:0.56521738;stroke-dasharray:none;font-family:Droid Sans;-inkscape-font-specification:Droid Sans Bold"
       x="4"
       y="90.023438"
       id="text3768"
       sodipodi:linespacing="125%"><tspan
         sodipodi:role="line"
         x="4"
         y="90.023438"
         id="tspan3776"
         style="font-size:4px;text-align:start;text-anchor:start;fill:#aa5196;fill-opacity:0.34782607;stroke:#91678b;stroke-width:0.1;stroke-opacity:0.56521738">Don't forget to make this layer invisible before saving</tspan></text>
    <rect
       inkscape:label="#rect3839"
       y="51.046875"
       x="88"
       height="32"
       width="32"
       id="drawable:mdpi"
       style="fill:#000000;fill-opacity:1;fill-rule:nonzero;stroke:none" />
    <rect
       inkscape:label="#rect3839"
       y="55.046875"
       x="92"
       height="24"
       width="24"
       id="rect3816"
       style="fill:#222222;fill-opacity:1;fill-rule:nonzero;stroke:none" />
    <rect
       style="fill:#000000;fill-opacity:1;fill-rule:nonzero;stroke:none"
       id="drawable:ldpi"
       width="24"
       height="24"
       x="19"
       y="62.046875"
       inkscape:label="#rect3839" />
    <rect
       style="fill:#222222;fill-opacity:1;fill-rule:nonzero;stroke:none"
       id="rect3820"
       width="18"
       height="18"
       x="22"
       y="65.046875"
       inkscape:label="#rect3839" />
    <rect
       style="fill:#000000;fill-opacity:1;fill-rule:nonzero;stroke:none"
       id="drawable:xhdpi"
       width="64"
       height="64"
       x="6"
       y="-4.953125"
       inkscape:label="#rect3839" />
    <rect
       style="fill:#222222;fill-opacity:1;fill-rule:nonzero;stroke:none"
       id="rect3824"
       width="48"
       height="48"
       x="14"
       y="3.046875"
       inkscape:label="#rect3839" />
  </g>
  <g
     inkscape:label="Icon"
     inkscape:groupmode="layer"
     id="layer1"
     transform="translate(-328,-451.40907)"
     style="display:inline">
    <path
       style="font-size:medium;font-style:normal;font-variant:normal;font-weight:normal;font-stretch:normal;text-indent:0;text-align:start;text-decoration:none;line-height:normal;letter-spacing:normal;word-spacing:normal;text-transform:none;direction:ltr;block-progression:tb;writing-mode:lr-tb;text-anchor:start;baseline-shift:baseline;opacity:1;color:#000000;fill:#ffffff;fill-opacity:0.80000000000000004;stroke:none;stroke-width:4;marker:none;visibility:visible;display:inline;overflow:visible;enable-background:accumulate;font-family:Sans;-inkscape-font-specification:Sans"
       d="m 100.9375,16.03125 a 2.0002,2.0002 0 0 0 -0.34375,0.03125 c -3.7469,0.32781 -7.24667,1.96542 -9.90625,4.625 -5.748603,5.748594 -6.169914,14.826357 -1.3125,21.09375 l -4,4 11.6875,1.0625 L 96,35.1875 l -3.78125,3.75 C 88.868895,34.24456 89.281271,27.718738 93.5,23.5 c 1.99521,-1.99521 4.65782,-3.22282 7.46875,-3.46875 a 2.0002,2.0002 0 0 0 -0.0312,-4 z"
       transform="translate(328,451.40907)"
       id="path28"
       inkscape:connector-curvature="0" />
    <path
       style="font-size:medium;font-style:normal;font-variant:normal;font-weight:normal;font-stretch:normal;text-indent:0;text-align:start;text-decoration:none;line-height:normal;letter-spacing:normal;word-spacing:normal;text-transform:none;direction:ltr;block-progression:tb;writing-mode:lr-tb;text-anchor:start;baseline-shift:baseline;opacity:1;color:#000000;fill:#ffffff;fill-opacity:0.80000000000000004;stroke:none;stroke-width:4;marker:none;visibility:visible;display:inline;overflow:visible;enable-background:accumulate;font-family:Sans;-inkscape-font-specification:Sans"
       d="M 106.9375,17.15625 108,28.8125 l 3.78125,-3.75 c 3.34986,4.69294 2.93748,11.218762 -1.28125,15.4375 -1.99521,1.99521 -4.65782,3.22282 -7.46875,3.46875 a 2.0002,2.0002 0 1 0 0.375,3.96875 c 3.7469,-0.32781 7.24667,-1.96542 9.90625,-4.625 5.7486,-5.748594 6.16991,-14.826357 1.3125,-21.09375 l 4,-4 -11.6875,-1.0625 z"
       transform="translate(328,451.40907)"
       id="path30"
       inkscape:connector-curvature="0" />
    <path
       style="font-size:medium;font-style:normal;font-variant:normal;font-weight:normal;font-stretch:normal;text-indent:0;text-align:start;text-decoration:none;line-height:normal;letter-spacing:normal;word-spacing:normal;text-transform:none;direction:ltr;block-progression:tb;writing-mode:lr-tb;text-anchor:start;baseline-shift:baseline;opacity:1;color:#000000;fill:#ffffff;fill-opacity:0.80000000000000004;stroke:none;stroke-width:3.78378439000000011;marker:none;visibility:visible;display:inline;overflow:visible;enable-background:accumulate;font-family:Sans;-inkscape-font-specification:Sans"
       d="m 362.15625,466.47157 c -4.91784,0.43026 -9.54053,2.57179 -13.03125,6.0625 -7.70552,7.70552 -8.15522,20.0419 -1.34375,28.28125 l -4.28125,4.28125 13.78125,1.75 -1.78125,-13.78125 -4.125,4.125 c -4.89072,-6.28391 -4.47233,-15.30892 1.3125,-21.09375 2.66026,-2.66026 6.15839,-4.29711 9.90625,-4.625 a 2.5095521,2.5095521 0 1 0 -0.4375,-5 z"
       id="path3788"
       inkscape:connector-curvature="0" />
    <path
       style="font-size:medium;font-style:normal;font-variant:normal;font-weight:normal;font-stretch:normal;text-indent:0;text-align:start;text-decoration:none;line-height:normal;letter-spacing:normal;word-spacing:normal;text-transform:none;direction:ltr;block-progression:tb;writing-mode:lr-tb;text-anchor:start;baseline-shift:baseline;opacity:1;color:#000000;fill:#ffffff;fill-opacity:0.80000000000000004;stroke:none;stroke-width:3.78378439000000011;marker:none;visibility:visible;display:inline;overflow:visible;enable-background:accumulate;font-family:Sans;-inkscape-font-specification:Sans"
       d="m 370.71875,467.97157 1.78125,13.78125 4.125,-4.125 c 4.89072,6.28391 4.47233,15.30892 -1.3125,21.09375 -2.66026,2.66026 -6.15839,4.29711 -9.90625,4.625 a 2.5095521,2.5095521 0 1 0 0.4375,5 c 4.91784,-0.43026 9.54053,-2.57179 13.03125,-6.0625 7.70552,-7.70553 8.15522,-20.0419 1.34375,-28.28125 l 4.28125,-4.28125 -13.78125,-1.75 z"
       id="path3790"
       inkscape:connector-curvature="0" />
    <path
       style="font-size:medium;font-style:normal;font-variant:normal;font-weight:normal;font-stretch:normal;text-indent:0;text-align:start;text-decoration:none;line-height:normal;letter-spacing:normal;word-spacing:normal;text-transform:none;direction:ltr;block-progression:tb;writing-mode:lr-tb;text-anchor:start;baseline-shift:baseline;opacity:1;color:#000000;fill:#ffffff;fill-opacity:0.80000000000000004;stroke:none;stroke-width:4.45487213000000004;marker:none;visibility:visible;display:inline;overflow:visible;enable-background:accumulate;font-family:Sans;-inkscape-font-specification:Sans"
       d="m 101.03125,65.03125 c -2.57866,0.22561 -4.98215,1.35715 -6.8125,3.1875 -3.806767,3.806767 -4.234214,9.746857 -1.28125,14.03125 l -2.59375,2.59375 7.78125,0.6875 -0.71875,-7.75 -2.28125,2.28125 c -1.82165,-3.068454 -1.426136,-7.073856 1.21875,-9.71875 1.32827,-1.32826 3.06621,-2.14879 4.9375,-2.3125 a 1.5123245,1.5123249 0 1 0 -0.25,-3 z"
       transform="translate(328,451.40907)"
       id="path3847"
       inkscape:connector-curvature="0" />
    <path
       style="font-size:medium;font-style:normal;font-variant:normal;font-weight:normal;font-stretch:normal;text-indent:0;text-align:start;text-decoration:none;line-height:normal;letter-spacing:normal;word-spacing:normal;text-transform:none;direction:ltr;block-progression:tb;writing-mode:lr-tb;text-anchor:start;baseline-shift:baseline;opacity:1;color:#000000;fill:#ffffff;fill-opacity:0.80000000000000004;stroke:none;stroke-width:4.45487213000000004;marker:none;visibility:visible;display:inline;overflow:visible;enable-background:accumulate;font-family:Sans;-inkscape-font-specification:Sans"
       d="m 105.875,66.46875 0.71875,7.75 2.28125,-2.28125 c 1.82165,3.068454 1.42614,7.073856 -1.21875,9.71875 -1.32827,1.32826 -3.06621,2.14879 -4.9375,2.3125 a 1.5123245,1.5123249 0 1 0 0.25,3 c 2.57866,-0.22561 4.98215,-1.35715 6.8125,-3.1875 3.80677,-3.806767 4.23421,-9.746857 1.28125,-14.03125 l 2.59375,-2.59375 -7.78125,-0.6875 z"
       transform="translate(328,451.40907)"
       id="path3849"
       inkscape:connector-curvature="0" />
    <path
       style="font-size:medium;font-style:normal;font-variant:normal;font-weight:normal;font-stretch:normal;text-indent:0;text-align:start;text-decoration:none;line-height:normal;letter-spacing:normal;word-spacing:normal;text-transform:none;direction:ltr;block-progression:tb;writing-mode:lr-tb;text-anchor:start;baseline-shift:baseline;opacity:1;color:#000000;fill:#ffffff;fill-opacity:0.80000000000000004;stroke:none;stroke-width:4;marker:none;visibility:visible;display:inline;overflow:visible;enable-background:accumulate;font-family:Sans;-inkscape-font-specification:Sans"
       d="m 28.3125,75.3125 c -1.87372,0.16393 -3.63878,0.98253 -4.96875,2.3125 -2.810857,2.810867 -3.103679,7.219299 -0.84375,10.34375 l -2.1875,2.1875 6.375,0.6875 -0.71875,-6.34375 -2,2 c -1.500303,-2.325701 -1.259277,-5.428223 0.78125,-7.46875 0.99775,-0.99774 2.31309,-1.59577 3.71875,-1.71875 a 1.0030471,1.0030471 0 1 0 -0.15625,-2 z"
       transform="translate(328,451.40907)"
       id="path3859"
       inkscape:connector-curvature="0" />
    <path
       style="font-size:medium;font-style:normal;font-variant:normal;font-weight:normal;font-stretch:normal;text-indent:0;text-align:start;text-decoration:none;line-height:normal;letter-spacing:normal;word-spacing:normal;text-transform:none;direction:ltr;block-progression:tb;writing-mode:lr-tb;text-anchor:start;baseline-shift:baseline;opacity:1;color:#000000;fill:#ffffff;fill-opacity:0.80000000000000004;stroke:none;stroke-width:4;marker:none;visibility:visible;display:inline;overflow:visible;enable-background:accumulate;font-family:Sans;-inkscape-font-specification:Sans"
       d="M 31.28125,75.65625 32,82.03125 34.03125,80 c 1.517984,2.328253 1.266416,5.483584 -0.78125,7.53125 -0.99775,0.99774 -2.31309,1.59577 -3.71875,1.71875 a 1.0030471,1.0030471 0 1 0 0.15625,2 c 1.87372,-0.16393 3.63878,-0.98253 4.96875,-2.3125 2.818838,-2.818847 3.093282,-7.249026 0.8125,-10.375 l 2.1875,-2.1875 -6.375,-0.71875 z"
       transform="translate(328,451.40907)"
       id="path3861"
       inkscape:connector-curvature="0" />
  </g>
</svg>
