<?xml version="1.0" encoding="UTF-8" standalone="no"?>
<!-- Created with Inkscape (http://www.inkscape.org/) -->

<svg
   xmlns:dc="http://purl.org/dc/elements/1.1/"
   xmlns:cc="http://creativecommons.org/ns#"
   xmlns:rdf="http://www.w3.org/1999/02/22-rdf-syntax-ns#"
   xmlns:svg="http://www.w3.org/2000/svg"
   xmlns="http://www.w3.org/2000/svg"
   xmlns:xlink="http://www.w3.org/1999/xlink"
   xmlns:sodipodi="http://sodipodi.sourceforge.net/DTD/sodipodi-0.dtd"
   xmlns:inkscape="http://www.inkscape.org/namespaces/inkscape"
   width="130"
   height="100"
   id="svg2872"
   version="1.1"
   inkscape:version="0.48.2 r9819"
   sodipodi:docname="ic_action_share.svg"
   inkscape:export-filename="/home/leonid/Dokumente/Grafik/CTX/icon.png"
   inkscape:export-xdpi="135"
   inkscape:export-ydpi="135">
  <defs
     id="defs2874">
    <linearGradient
       id="linearGradient3886">
      <stop
         style="stop-color:#8c8c8c;stop-opacity:1;"
         offset="0"
         id="stop3888" />
      <stop
         style="stop-color:#b2b2b2;stop-opacity:1;"
         offset="1"
         id="stop3890" />
    </linearGradient>
    <linearGradient
       inkscape:collect="always"
       xlink:href="#linearGradient3886"
       id="linearGradient3892"
       x1="99"
       y1="10"
       x2="99"
       y2="42"
       gradientUnits="userSpaceOnUse"
       gradientTransform="matrix(1,0,0,-1,328,510.38563)" />
    <clipPath
       clipPathUnits="userSpaceOnUse"
       id="clipPath3960">
      <path
         style="fill:#000000;fill-opacity:1;fill-rule:nonzero;stroke:none"
         d="m 470,486.38563 c -8.83656,0 -16,-7.16345 -16,-16 0,-8.83655 7.16344,-16 16,-16 8.83656,0 16,7.16345 16,16 0,8.83655 -7.16344,16 -16,16 z m 0,-4 c 6.62742,0 12,-5.37258 12,-12 0,-6.62742 -5.37258,-12 -12,-12 -6.62742,0 -12,5.37258 -12,12 0,6.62742 5.37258,12 12,12 z m -2.84375,-6.75 c -0.25562,0 -0.49163,-0.11663 -0.6875,-0.3125 l -1.40625,-1.40625 c -0.39173,-0.39173 -0.39173,-1.01451 0,-1.40625 l 2.09375,-2.125 -2.09375,-2.125 c -0.39173,-0.39174 -0.39173,-1.01452 0,-1.40625 l 1.40625,-1.40625 c 0.39173,-0.39173 1.01451,-0.39173 1.40625,0 l 2.125,2.09375 2.125,-2.09375 c 0.39174,-0.39173 1.01452,-0.39173 1.40625,0 l 1.40625,1.40625 c 0.39173,0.39173 0.39173,1.01451 0,1.40625 l -2.09375,2.125 2.09375,2.125 c 0.39173,0.39174 0.39173,1.01452 0,1.40625 l -1.40625,1.40625 c -0.39173,0.39173 -1.01451,0.39173 -1.40625,0 l -2.125,-2.09375 -2.125,2.09375 c -0.19587,0.19587 -0.46313,0.3125 -0.71875,0.3125 z"
         id="path3962"
         inkscape:connector-curvature="0" />
    </clipPath>
    <linearGradient
       inkscape:collect="always"
       xlink:href="#linearGradient3886"
       id="linearGradient4002"
       gradientUnits="userSpaceOnUse"
       gradientTransform="matrix(1,0,0,-1,328,510.38563)"
       x1="99"
       y1="10"
       x2="99"
       y2="42" />
    <linearGradient
       inkscape:collect="always"
       xlink:href="#linearGradient3886"
       id="linearGradient4010"
       gradientUnits="userSpaceOnUse"
       gradientTransform="matrix(1,0,0,-1,328,510.38563)"
       x1="99"
       y1="10"
       x2="99"
       y2="42" />
    <linearGradient
       inkscape:collect="always"
       xlink:href="#linearGradient3886"
       id="linearGradient4014"
       gradientUnits="userSpaceOnUse"
       gradientTransform="matrix(1,0,0,-1,328,510.38563)"
       x1="99"
       y1="10"
       x2="99"
       y2="42" />
  </defs>
  <sodipodi:namedview
     id="base"
     pagecolor="#222222"
     bordercolor="#666666"
     borderopacity="1.0"
     inkscape:pageopacity="1"
     inkscape:pageshadow="2"
     inkscape:zoom="8.6153846"
     inkscape:cx="65"
     inkscape:cy="50"
     inkscape:document-units="px"
     inkscape:current-layer="layer1"
     showgrid="true"
     inkscape:window-width="1680"
     inkscape:window-height="1026"
     inkscape:window-x="1440"
     inkscape:window-y="24"
     inkscape:window-maximized="1"
     showguides="true"
     inkscape:guide-bbox="true"
     fit-margin-top="0"
     fit-margin-left="0"
     fit-margin-right="0"
     fit-margin-bottom="0">
    <inkscape:grid
       type="xygrid"
       id="grid3021"
       empspacing="2"
       visible="true"
       enabled="true"
       snapvisiblegridlinesonly="true"
       spacingx="0.5px"
       spacingy="0.5px"
       dotted="false"
       color="#ff00ea"
       opacity="0.1254902" />
  </sodipodi:namedview>
  <metadata
     id="metadata2877">
    <rdf:RDF>
      <cc:Work
         rdf:about="">
        <dc:format>image/svg+xml</dc:format>
        <dc:type
           rdf:resource="http://purl.org/dc/dcmitype/StillImage" />
        <dc:title />
      </cc:Work>
    </rdf:RDF>
  </metadata>
  <g
     inkscape:groupmode="layer"
     id="layer2"
     inkscape:label="drawable:layer"
     style="display:none"
     transform="translate(-2,8.953125)"
     sodipodi:insensitive="true">
    <rect
       style="fill:#000000;fill-opacity:1;fill-rule:nonzero;stroke:none"
       id="drawable:hdpi"
       width="48"
       height="48"
       x="80"
       y="-0.953125"
       inkscape:label="#rect3839" />
    <rect
       style="fill:#222222;fill-opacity:1;fill-rule:nonzero;stroke:none"
       id="rect3923"
       width="36"
       height="36"
       x="86"
       y="5.046875"
       inkscape:label="#rect3839" />
    <text
       xml:space="preserve"
       style="font-size:5.65904617px;font-style:normal;font-variant:normal;font-weight:bold;font-stretch:normal;text-align:start;line-height:125%;letter-spacing:0px;word-spacing:0px;text-anchor:start;fill:#aa5196;fill-opacity:0.34782607;stroke:#91678b;stroke-width:0.1;stroke-miterlimit:4;stroke-opacity:0.56521738;stroke-dasharray:none;font-family:Droid Sans;-inkscape-font-specification:Droid Sans Bold"
       x="4"
       y="90.023438"
       id="text3768"
       sodipodi:linespacing="125%"><tspan
         sodipodi:role="line"
         x="4"
         y="90.023438"
         id="tspan3776"
         style="font-size:4px;text-align:start;text-anchor:start;fill:#aa5196;fill-opacity:0.34782607;stroke:#91678b;stroke-width:0.1;stroke-opacity:0.56521738">Don't forget to make this layer invisible before saving</tspan></text>
    <rect
       inkscape:label="#rect3839"
       y="51.046875"
       x="88"
       height="32"
       width="32"
       id="drawable:mdpi"
       style="fill:#000000;fill-opacity:1;fill-rule:nonzero;stroke:none" />
    <rect
       inkscape:label="#rect3839"
       y="55.046875"
       x="92"
       height="24"
       width="24"
       id="rect3816"
       style="fill:#222222;fill-opacity:1;fill-rule:nonzero;stroke:none" />
    <rect
       style="fill:#000000;fill-opacity:1;fill-rule:nonzero;stroke:none"
       id="drawable:ldpi"
       width="24"
       height="24"
       x="19"
       y="62.046875"
       inkscape:label="#rect3839" />
    <rect
       style="fill:#222222;fill-opacity:1;fill-rule:nonzero;stroke:none"
       id="rect3820"
       width="18"
       height="18"
       x="22"
       y="65.046875"
       inkscape:label="#rect3839" />
    <rect
       style="fill:#000000;fill-opacity:1;fill-rule:nonzero;stroke:none"
       id="drawable:xhdpi"
       width="64"
       height="64"
       x="6"
       y="-4.953125"
       inkscape:label="#rect3839" />
    <rect
       style="fill:#222222;fill-opacity:1;fill-rule:nonzero;stroke:none"
       id="rect3824"
       width="48"
       height="48"
       x="14"
       y="3.046875"
       inkscape:label="#rect3839" />
  </g>
  <g
     inkscape:label="Icon"
     inkscape:groupmode="layer"
     id="layer1"
     transform="translate(-328,-451.40907)"
     style="display:inline">
    <path
       style="opacity:1;fill:#ffffff;fill-opacity:0.80000000000000004;fill-rule:nonzero;stroke:none"
       d="M 49.5 15 C 45.910149 15 43 17.910149 43 21.5 C 43 22.107107 43.094323 22.692561 43.25 23.25 L 43.09375 23.34375 L 27.46875 32.03125 L 27.3125 32.125 C 26.123761 30.821555 24.403111 30 22.5 30 C 18.910149 30 16 32.910149 16 36.5 C 16 40.089851 18.910149 43 22.5 43 C 24.472926 43 26.245422 42.10648 27.4375 40.71875 L 27.59375 40.8125 L 43.03125 48.84375 L 43.1875 48.9375 C 43.064071 49.437863 43 49.961522 43 50.5 C 43 54.089851 45.910149 57 49.5 57 C 53.089851 57 56 54.089851 56 50.5 C 56 46.910149 53.089851 44 49.5 44 C 47.527074 44 45.754578 44.89352 44.5625 46.28125 L 44.40625 46.1875 L 28.96875 38.15625 L 28.8125 38.0625 C 28.935929 37.562137 29 37.038478 29 36.5 C 29 35.892893 28.905677 35.307439 28.75 34.75 L 28.90625 34.65625 L 44.53125 25.96875 L 44.6875 25.875 C 45.876239 27.178445 47.596889 28 49.5 28 C 53.089851 28 56 25.089851 56 21.5 C 56 17.910149 53.089851 15 49.5 15 z "
       transform="translate(328,451.40907)"
       id="path3018" />
    <path
       style="opacity:1;fill:#ffffff;fill-opacity:0.80000000000000004;fill-rule:nonzero;stroke:none"
       d="M 112 16 C 109.23858 16 107 18.238575 107 21 C 107 21.345178 107.02715 21.674512 107.09375 22 L 95.4375 28.40625 C 94.53957 27.546795 93.341101 27 92 27 C 89.238576 27 87 29.238578 87 32 C 87 34.761422 89.238576 37 92 37 C 93.341101 37 94.53957 36.453205 95.4375 35.59375 L 107.09375 42 C 107.02715 42.325488 107 42.654822 107 43 C 107 45.761424 109.23858 48 112 48 C 114.76142 48 117 45.761424 117 43 C 117 40.238576 114.76142 38 112 38 C 110.6589 38 109.46043 38.546794 108.5625 39.40625 L 96.90625 33 C 96.972854 32.674512 97 32.345178 97 32 C 97 31.654822 96.972854 31.325488 96.90625 31 L 108.5625 24.59375 C 109.46043 25.453206 110.6589 26 112 26 C 114.76142 26 117 23.761425 117 21 C 117 18.238575 114.76142 16 112 16 z "
       transform="translate(328,451.40907)"
       id="path3796" />
    <path
       style="opacity:1;fill:#ffffff;fill-opacity:0.80000000000000004;fill-rule:nonzero;stroke:none"
       d="M 109 66 C 107.34314 66 106 67.343144 106 69 C 106 69.130506 106.01509 69.24889 106.03125 69.375 L 105.4375 69.71875 L 97.59375 74.0625 L 97.09375 74.34375 C 96.553515 73.819049 95.812589 73.5 95 73.5 C 93.343147 73.5 92 74.843146 92 76.5 C 92 78.156854 93.343147 79.5 95 79.5 C 95.828427 79.5 96.582107 79.167893 97.125 78.625 L 97.6875 78.875 L 105.40625 82.90625 L 106.03125 83.21875 C 106.1476 84.769238 107.41975 86 109 86 C 110.65685 86 112 84.656854 112 83 C 112 81.343146 110.65685 80 109 80 C 107.99614 80 107.10708 80.492843 106.5625 81.25 L 106.3125 81.125 L 98.59375 77.125 L 97.96875 76.78125 C 97.977965 76.685503 98 76.598163 98 76.5 C 98 76.369494 97.984913 76.25111 97.96875 76.125 L 98.5625 75.8125 L 106.40625 71.46875 L 106.9375 71.15625 C 107.47614 71.671244 108.19594 72 109 72 C 110.65686 72 112 70.656856 112 69 C 112 67.343144 110.65686 66 109 66 z "
       transform="translate(328,451.40907)"
       id="path3806" />
    <path
       style="opacity:1;fill:#ffffff;fill-opacity:0.80000000000000004;fill-rule:nonzero;stroke:none"
       d="M 34 75 C 32.619288 75 31.5 76.119288 31.5 77.5 C 31.5 77.575674 31.524667 77.644788 31.53125 77.71875 L 25.53125 81.03125 C 25.108782 80.704665 24.575297 80.5 24 80.5 C 22.619288 80.5 21.5 81.619289 21.5 83 C 21.5 84.380711 22.619288 85.5 24 85.5 C 24.575297 85.5 25.108782 85.295335 25.53125 84.96875 L 31.53125 88.28125 C 31.524667 88.355212 31.5 88.424326 31.5 88.5 C 31.5 89.880712 32.619288 91 34 91 C 35.380712 91 36.5 89.880712 36.5 88.5 C 36.5 87.119288 35.380712 86 34 86 C 33.424703 86 32.891218 86.204664 32.46875 86.53125 L 26.46875 83.21875 C 26.475333 83.144788 26.5 83.075674 26.5 83 C 26.5 82.924326 26.475333 82.855212 26.46875 82.78125 L 32.46875 79.46875 C 32.891218 79.795336 33.424703 80 34 80 C 35.380712 80 36.5 78.880712 36.5 77.5 C 36.5 76.119288 35.380712 75 34 75 z "
       transform="translate(328,451.40907)"
       id="path3816" />
  </g>
</svg>
