<?xml version="1.0" encoding="UTF-8" standalone="no"?>
<!-- Created with Inkscape (http://www.inkscape.org/) -->

<svg
   xmlns:dc="http://purl.org/dc/elements/1.1/"
   xmlns:cc="http://creativecommons.org/ns#"
   xmlns:rdf="http://www.w3.org/1999/02/22-rdf-syntax-ns#"
   xmlns:svg="http://www.w3.org/2000/svg"
   xmlns="http://www.w3.org/2000/svg"
   xmlns:xlink="http://www.w3.org/1999/xlink"
   xmlns:sodipodi="http://sodipodi.sourceforge.net/DTD/sodipodi-0.dtd"
   xmlns:inkscape="http://www.inkscape.org/namespaces/inkscape"
   width="130"
   height="100"
   id="svg2872"
   version="1.1"
   inkscape:version="0.48.2 r9819"
   sodipodi:docname="ic_action_qrsync.svg"
   inkscape:export-filename="/home/leonid/Dokumente/Grafik/CTX/icon.png"
   inkscape:export-xdpi="135"
   inkscape:export-ydpi="135">
  <defs
     id="defs2874">
    <linearGradient
       id="linearGradient3886">
      <stop
         style="stop-color:#8c8c8c;stop-opacity:1;"
         offset="0"
         id="stop3888" />
      <stop
         style="stop-color:#b2b2b2;stop-opacity:1;"
         offset="1"
         id="stop3890" />
    </linearGradient>
    <linearGradient
       inkscape:collect="always"
       xlink:href="#linearGradient3886"
       id="linearGradient3892"
       x1="99"
       y1="10"
       x2="99"
       y2="42"
       gradientUnits="userSpaceOnUse"
       gradientTransform="matrix(1,0,0,-1,328,510.38563)" />
    <clipPath
       clipPathUnits="userSpaceOnUse"
       id="clipPath3960">
      <path
         style="fill:#000000;fill-opacity:1;fill-rule:nonzero;stroke:none"
         d="m 470,486.38563 c -8.83656,0 -16,-7.16345 -16,-16 0,-8.83655 7.16344,-16 16,-16 8.83656,0 16,7.16345 16,16 0,8.83655 -7.16344,16 -16,16 z m 0,-4 c 6.62742,0 12,-5.37258 12,-12 0,-6.62742 -5.37258,-12 -12,-12 -6.62742,0 -12,5.37258 -12,12 0,6.62742 5.37258,12 12,12 z m -2.84375,-6.75 c -0.25562,0 -0.49163,-0.11663 -0.6875,-0.3125 l -1.40625,-1.40625 c -0.39173,-0.39173 -0.39173,-1.01451 0,-1.40625 l 2.09375,-2.125 -2.09375,-2.125 c -0.39173,-0.39174 -0.39173,-1.01452 0,-1.40625 l 1.40625,-1.40625 c 0.39173,-0.39173 1.01451,-0.39173 1.40625,0 l 2.125,2.09375 2.125,-2.09375 c 0.39174,-0.39173 1.01452,-0.39173 1.40625,0 l 1.40625,1.40625 c 0.39173,0.39173 0.39173,1.01451 0,1.40625 l -2.09375,2.125 2.09375,2.125 c 0.39173,0.39174 0.39173,1.01452 0,1.40625 l -1.40625,1.40625 c -0.39173,0.39173 -1.01451,0.39173 -1.40625,0 l -2.125,-2.09375 -2.125,2.09375 c -0.19587,0.19587 -0.46313,0.3125 -0.71875,0.3125 z"
         id="path3962"
         inkscape:connector-curvature="0" />
    </clipPath>
    <linearGradient
       inkscape:collect="always"
       xlink:href="#linearGradient3886"
       id="linearGradient4002"
       gradientUnits="userSpaceOnUse"
       gradientTransform="matrix(1,0,0,-1,328,510.38563)"
       x1="99"
       y1="10"
       x2="99"
       y2="42" />
    <linearGradient
       inkscape:collect="always"
       xlink:href="#linearGradient3886"
       id="linearGradient4010"
       gradientUnits="userSpaceOnUse"
       gradientTransform="matrix(1,0,0,-1,328,510.38563)"
       x1="99"
       y1="10"
       x2="99"
       y2="42" />
    <linearGradient
       inkscape:collect="always"
       xlink:href="#linearGradient3886"
       id="linearGradient4014"
       gradientUnits="userSpaceOnUse"
       gradientTransform="matrix(1,0,0,-1,328,510.38563)"
       x1="99"
       y1="10"
       x2="99"
       y2="42" />
  </defs>
  <sodipodi:namedview
     id="base"
     pagecolor="#222222"
     bordercolor="#666666"
     borderopacity="1.0"
     inkscape:pageopacity="1"
     inkscape:pageshadow="2"
     inkscape:zoom="8.6153846"
     inkscape:cx="65"
     inkscape:cy="50"
     inkscape:document-units="px"
     inkscape:current-layer="layer3"
     showgrid="true"
     inkscape:window-width="1680"
     inkscape:window-height="1026"
     inkscape:window-x="1440"
     inkscape:window-y="24"
     inkscape:window-maximized="1"
     showguides="true"
     inkscape:guide-bbox="true"
     fit-margin-top="0"
     fit-margin-left="0"
     fit-margin-right="0"
     fit-margin-bottom="0">
    <inkscape:grid
       type="xygrid"
       id="grid3021"
       empspacing="2"
       visible="true"
       enabled="true"
       snapvisiblegridlinesonly="true"
       spacingx="0.5px"
       spacingy="0.5px"
       dotted="false"
       color="#ff00ea"
       opacity="0.1254902" />
  </sodipodi:namedview>
  <metadata
     id="metadata2877">
    <rdf:RDF>
      <cc:Work
         rdf:about="">
        <dc:format>image/svg+xml</dc:format>
        <dc:type
           rdf:resource="http://purl.org/dc/dcmitype/StillImage" />
        <dc:title />
      </cc:Work>
    </rdf:RDF>
  </metadata>
  <g
     inkscape:groupmode="layer"
     id="layer2"
     inkscape:label="drawable:layer"
     style="display:none"
     transform="translate(-2,8.953125)"
     sodipodi:insensitive="true">
    <rect
       style="fill:#000000;fill-opacity:1;fill-rule:nonzero;stroke:none"
       id="drawable:hdpi"
       width="48"
       height="48"
       x="80"
       y="-0.953125"
       inkscape:label="#rect3839" />
    <rect
       style="fill:#222222;fill-opacity:1;fill-rule:nonzero;stroke:none"
       id="rect3923"
       width="36"
       height="36"
       x="86"
       y="5.046875"
       inkscape:label="#rect3839" />
    <text
       xml:space="preserve"
       style="font-size:5.65904617px;font-style:normal;font-variant:normal;font-weight:bold;font-stretch:normal;text-align:start;line-height:125%;letter-spacing:0px;word-spacing:0px;text-anchor:start;fill:#aa5196;fill-opacity:0.34782607;stroke:#91678b;stroke-width:0.1;stroke-miterlimit:4;stroke-opacity:0.56521738;stroke-dasharray:none;font-family:Droid Sans;-inkscape-font-specification:Droid Sans Bold"
       x="4"
       y="90.023438"
       id="text3768"
       sodipodi:linespacing="125%"><tspan
         sodipodi:role="line"
         x="4"
         y="90.023438"
         id="tspan3776"
         style="font-size:4px;text-align:start;text-anchor:start;fill:#aa5196;fill-opacity:0.34782607;stroke:#91678b;stroke-width:0.1;stroke-opacity:0.56521738">Don't forget to make this layer invisible before saving</tspan></text>
    <rect
       inkscape:label="#rect3839"
       y="51.046875"
       x="88"
       height="32"
       width="32"
       id="drawable:mdpi"
       style="fill:#000000;fill-opacity:1;fill-rule:nonzero;stroke:none" />
    <rect
       inkscape:label="#rect3839"
       y="55.046875"
       x="92"
       height="24"
       width="24"
       id="rect3816"
       style="fill:#222222;fill-opacity:1;fill-rule:nonzero;stroke:none" />
    <rect
       style="fill:#000000;fill-opacity:1;fill-rule:nonzero;stroke:none"
       id="drawable:ldpi"
       width="24"
       height="24"
       x="19"
       y="62.046875"
       inkscape:label="#rect3839" />
    <rect
       style="fill:#222222;fill-opacity:1;fill-rule:nonzero;stroke:none"
       id="rect3820"
       width="18"
       height="18"
       x="22"
       y="65.046875"
       inkscape:label="#rect3839" />
    <rect
       style="fill:#000000;fill-opacity:1;fill-rule:nonzero;stroke:none"
       id="drawable:xhdpi"
       width="64"
       height="64"
       x="6"
       y="-4.953125"
       inkscape:label="#rect3839" />
    <rect
       style="fill:#222222;fill-opacity:1;fill-rule:nonzero;stroke:none"
       id="rect3824"
       width="48"
       height="48"
       x="14"
       y="3.046875"
       inkscape:label="#rect3839" />
  </g>
  <g
     inkscape:groupmode="layer"
     id="layer3"
     inkscape:label="icon">
    <path
       style="fill:#ffffff;fill-opacity:0.80000001;fill-rule:nonzero;stroke:none"
       d="M 101.5 64 C 97.853781 64 94.831552 66.614064 94.15625 70.0625 C 91.801097 70.467243 90 72.529322 90 75 C 90 77.761425 92.238576 80 95 80 L 99 80 L 99 78 L 95 78 L 102 69 L 109 78 L 105 78 L 105 80 L 108.5 80 C 111.53756 80 114 77.537563 114 74.5 C 114 71.483466 111.57103 69.033769 108.5625 69 C 107.52919 66.093921 104.76061 64 101.5 64 z M 105 80 L 99 80 L 99 88 L 105 88 L 105 80 z "
       id="rect3776" />
    <path
       style="fill:#ffffff;fill-opacity:0.80000001;fill-rule:nonzero;stroke:none"
       d="M 101 14 C 95.498481 14 90.914352 17.938211 89.9375 23.15625 C 86.5496 23.878352 84 26.896707 84 30.5 C 84 34.642137 87.357864 38 91.5 38 L 97 38 L 97 35 L 91 35 L 102 21 L 113 35 L 107 35 L 107 38 L 111.5 38 C 116.19442 38 120 34.194423 120 29.5 C 120 24.805577 116.19442 21 111.5 21 C 111.4686 21 111.43757 20.99966 111.40625 21 C 109.72696 16.89939 105.70525 14 101 14 z M 107 38 L 97 38 L 97 50 L 107 50 L 107 38 z "
       id="rect3793" />
    <path
       style="fill:#ffffff;fill-opacity:0.80000001;fill-rule:nonzero;stroke:none"
       d="M 35 12 C 27.676047 12 21.596598 17.246194 20.28125 24.1875 C 15.584248 25.007997 12 29.068084 12 34 C 12 39.522849 16.477152 44 22 44 L 30 44 L 30 40 L 22 40 L 36 22 L 50 40 L 42 40 L 42 44 L 49 44 C 55.075123 44 60 39.075126 60 33 C 60 26.966932 55.142069 22.067539 49.125 22 C 47.066209 16.173316 41.531611 12 35 12 z M 42 44 L 30 44 L 30 60 L 42 60 L 42 44 z "
       id="rect3801" />
    <path
       style="fill:#ffffff;fill-opacity:0.80000001;fill-rule:nonzero;stroke:none"
       d="M 28.5 74 C 25.760733 74 23.501349 75.969683 23 78.5625 C 21.291188 78.912174 20 80.437815 20 82.25 C 20 84.321068 21.678932 86 23.75 86 L 27 86 L 27 84 L 24 84 L 29 77 L 34 84 L 31 84 L 31 86 L 33.75 86 C 36.09721 86 38 84.097211 38 81.75 C 38 79.402789 36.09721 77.5 33.75 77.5 C 33.739266 77.5 33.729465 77.499921 33.71875 77.5 C 32.880772 75.4461 30.855219 74 28.5 74 z M 31 86 L 27 86 L 27 92 L 31 92 L 31 86 z "
       id="rect3809" />
  </g>
</svg>
